<?xml version="1.0" encoding="UTF-8"?>
<svg id="Layer_1" xmlns="http://www.w3.org/2000/svg" version="1.1" viewBox="0 0 1366 768">
  <!-- Generator: Adobe Illustrator 29.8.5, SVG Export Plug-In . SVG Version: 2.1.1 Build 2)  -->
  <path d="M697.4,349.3v41.7l-153.9.7v133.5h-42.8v-133.5l-106.4-.4v68.9c0,17-1.3,29.9-3.9,38.8s-7.6,15.9-15.1,21.1-30.3,7.7-43.1,7.7c-73,0-69.5-46.7-69.5-46.7l51.6.6s2.9,10.1,15.5,10.1,16.6-5.6,18.3-10.7c0,0,1.8-3.3,2.1-20.9v-69.1h-41.3v-41.8h388.5Z" fill="#f59e0b" stroke="red" stroke-miterlimit="10"/>
  <path d="M467.6,406.8l.3,118.3h-43.5l.5-118.3h42.8,0Z" fill="#f59e0b" stroke="red" stroke-miterlimit="10"/>
  <path d="M613.8,524.3l-1.3,66.6-38.2-.6v-181.8h57.3c14.3,0,25.2,2.2,32.6,6.7,7.4,4.4,13.3,11.2,17.7,20.4,4.4,9.1,6.5,19.4,6.5,30.8,0,17.3-4.5,31.3-13.4,42s-20.8,16-35.7,16h-25.7.2ZM613.8,490.4l19.2-.6c15.2,0,22.9-7.9,22.9-23.8s-7-22.4-21.1-22.4l-20.9.4v46.5h-.1Z" fill="#f59e0b" stroke="red" stroke-miterlimit="10"/>
  <path d="M747.4,524.5h-38.9v-115.3l35.9-.4v13.8c10-16.3,21.6-15.8,28.9-15.1,16.5,1.7,20.1,5,20.1,5l-18.2,35.2c-2.8-.8-5.4-1.1-7.6-1.1-13.4,0-20.1,8.4-20.1,25.1v52.8h-.1Z" fill="#f59e0b" stroke="red" stroke-miterlimit="10"/>
  <path d="M846.7,526.9c-17.3,0-31-6-41.1-17.9-10.2-11.9-15.2-25.9-15.2-41.9s5.3-31.6,15.9-43.1c10.6-11.5,24.4-17.2,41.4-17.2s30.9,5.7,41.3,17c10.4,11.3,15.6,25.6,15.6,42.6s-5.3,31.6-15.8,43.1-24.5,17.3-42,17.3h-.1ZM846.6,493.6c9.9,0,14.6-2.2,18-6.9s4.1-12.6,4.1-22.6-2.2-17.6-5.3-21.8c-3.1-4.3-8.7-6.4-16.7-6.4s-12.8,2.2-16.2,6.6-5.1,11.7-5.1,21.8,1.8,19.8,5.3,23.6c3.5,3.8,8.8,5.8,15.9,5.8h0Z" fill="#f59e0b" stroke="red" stroke-miterlimit="10"/>
  <ellipse cx="447.1" cy="308.5" rx="29.4" ry="29.1" fill="#f59e0b" stroke="red" stroke-miterlimit="10"/>
  <g id="Dimensions" display="none">
    <g id="Manual_Dimension">
      <line x1="662.8" y1="500" x2="662.8" y2="445" fill="none" stroke="#231f20" stroke-miterlimit="10" stroke-width=".5"/>
      <line x1="623.6" y1="500" x2="623.6" y2="445" fill="none" stroke="#231f20" stroke-miterlimit="10" stroke-width=".5"/>
      <g isolation="isolate">
        <text transform="translate(615.7 445)" fill="#231f20" font-family="MyriadPro-Regular, &apos;Myriad Pro&apos;" font-size="14" isolation="isolate"><tspan x="0" y="0" xml:space="preserve"> 39.18 px </tspan></text>
      </g>
      <g>
        <line x1="630.8" y1="454" x2="655.6" y2="454" fill="none" stroke="#231f20" stroke-miterlimit="10"/>
        <polygon points="632.3 459 623.6 454 632.3 449 632.3 459" fill="#231f20"/>
        <polygon points="654.2 459 662.8 454 654.2 449 654.2 459" fill="#231f20"/>
      </g>
    </g>
    <g id="Manual_Dimension1">
      <line x1="697.5" y1="400" x2="697.5" y2="366.5" fill="none" stroke="#231f20" stroke-miterlimit="10" stroke-width=".5"/>
      <line x1="666.5" y1="400" x2="666.5" y2="366.5" fill="none" stroke="#231f20" stroke-miterlimit="10" stroke-width=".5"/>
      <g isolation="isolate">
        <text transform="translate(663.1 366.5)" fill="#231f20" font-family="MyriadPro-Regular, &apos;Myriad Pro&apos;" font-size="14" isolation="isolate"><tspan x="0" y="0" xml:space="preserve"> 31 px </tspan></text>
      </g>
      <g>
        <line x1="673.7" y1="375.5" x2="690.3" y2="375.5" fill="none" stroke="#231f20" stroke-miterlimit="10"/>
        <polygon points="675.1 380.5 666.5 375.5 675.1 370.5 675.1 380.5" fill="#231f20"/>
        <polygon points="688.9 380.5 697.5 375.5 688.9 370.5 688.9 380.5" fill="#231f20"/>
      </g>
    </g>
    <g id="Manual_Dimension2">
      <line x1="592.8" y1="414.5" x2="592.8" y2="429.5" fill="none" stroke="#231f20" stroke-miterlimit="10" stroke-width=".5"/>
      <line x1="550" y1="414.5" x2="550" y2="429.5" fill="none" stroke="#231f20" stroke-miterlimit="10" stroke-width=".5"/>
      <g isolation="isolate">
        <text transform="translate(543.9 438.8)" fill="#231f20" font-family="MyriadPro-Regular, &apos;Myriad Pro&apos;" font-size="14" isolation="isolate"><tspan x="0" y="0" xml:space="preserve"> 42.78 px </tspan></text>
      </g>
      <g>
        <line x1="557.2" y1="420.5" x2="585.6" y2="420.5" fill="none" stroke="#231f20" stroke-miterlimit="10"/>
        <polygon points="558.7 425.5 550 420.5 558.7 415.5 558.7 425.5" fill="#231f20"/>
        <polygon points="584.2 425.5 592.8 420.5 584.2 415.5 584.2 425.5" fill="#231f20"/>
      </g>
    </g>
  </g>
</svg>